<svg xmlns="http://www.w3.org/2000/svg" xmlns:xlink="http://www.w3.org/1999/xlink" width="500" zoomAndPan="magnify" viewBox="0 0 375 374.999991" height="500" preserveAspectRatio="xMidYMid meet" version="1.0"><defs><clipPath id="fa6ba6c0d4"><path d="M 42 55.574219 L 333 55.574219 L 333 318 L 42 318 Z M 42 55.574219 " clip-rule="nonzero"/></clipPath></defs><g clip-path="url(#fa6ba6c0d4)"><path fill="#409f66" d="M 185.6875 237.1875 C 173.464844 250.785156 130.792969 308.210938 130.792969 308.210938 C 121.96875 318.046875 114.878906 316.890625 109.890625 316.023438 C 104.898438 315.226562 86.453125 300.6875 86.453125 300.6875 C 76.617188 292.660156 75.96875 281.59375 82.1875 275.519531 C 91.375 266.550781 129.777344 222.867188 145.472656 208.617188 C 124.066406 202.398438 66.855469 187.933594 55.210938 184.460938 C 45.664062 180.335938 41.46875 172.960938 43.492188 164.207031 C 45.15625 159.652344 47.542969 150.320312 49.0625 147.5 C 52.460938 139.402344 57.308594 132.457031 63.746094 130.503906 C 70.179688 128.550781 74.808594 130.070312 77.632812 131.589844 C 77.632812 131.589844 143.230469 156.253906 159.722656 162.691406 L 161.023438 75.679688 C 162.6875 62.15625 170.714844 55.574219 184.964844 55.9375 C 194.582031 56.515625 200.082031 57.742188 206.878906 58.613281 C 213.605469 59.480469 224.597656 66.421875 220.984375 81.25 C 220.984375 81.25 211.144531 143.304688 207.820312 163.125 C 236.605469 151.046875 298.15625 130.433594 298.15625 130.433594 C 303.507812 128.769531 309.871094 127.609375 315.730469 129.347656 C 321.589844 131.082031 324.699219 136.363281 326.722656 142.800781 L 331.496094 158.277344 C 333.523438 164.714844 333.523438 175.78125 325.929688 179.179688 C 320.070312 181.785156 244.128906 200.804688 225.828125 206.449219 C 239.714844 220.984375 278.480469 264.816406 285.789062 273.203125 C 292.007812 281.882812 291.644531 290.203125 284.703125 298.300781 C 282.027344 300.761719 268.5 311.753906 268.5 311.753906 C 261.847656 316.746094 251.722656 319.421875 245.644531 314.863281 C 239.570312 310.019531 200.949219 256.28125 185.6875 237.1875 Z M 185.6875 237.1875 " fill-opacity="1" fill-rule="nonzero"/></g></svg>