<svg xmlns="http://www.w3.org/2000/svg" xmlns:xlink="http://www.w3.org/1999/xlink" width="500" zoomAndPan="magnify" viewBox="0 0 375 374.999991" height="500" preserveAspectRatio="xMidYMid meet" version="1.0"><defs><clipPath id="7c97e80a87"><path d="M 138.492188 88.125 L 337.324219 88.125 L 337.324219 286.851562 L 138.492188 286.851562 Z M 138.492188 88.125 " clip-rule="nonzero"/></clipPath><clipPath id="e0a793dbed"><path d="M 37.683594 88.125 L 237 88.125 L 237 286.851562 L 37.683594 286.851562 Z M 37.683594 88.125 " clip-rule="nonzero"/></clipPath></defs><g clip-path="url(#7c97e80a87)"><path fill="#409f66" d="M 336.636719 175.890625 L 336.609375 175.445312 C 330.617188 126.324219 288.648438 88.121094 237.953125 88.121094 C 224.085938 88.097656 210.371094 91.011719 197.707031 96.664062 C 211.511719 105.871094 223.035156 118.109375 231.402344 132.4375 C 233.574219 132.164062 235.765625 132.023438 237.953125 132.019531 C 268.578125 132.011719 293.410156 156.824219 293.421875 187.449219 C 293.425781 197.976562 290.433594 208.289062 284.789062 217.179688 C 284.730469 217.238281 284.671875 217.328125 284.613281 217.386719 C 274.445312 233.316406 256.855469 242.957031 237.953125 242.953125 C 232.261719 242.914062 226.605469 242.03125 221.167969 240.34375 C 206.230469 235.574219 194.003906 224.714844 187.5 210.445312 C 184.5 203.96875 182.816406 196.964844 182.546875 189.832031 L 182.546875 189.59375 C 182.488281 188.878906 182.488281 188.199219 182.488281 187.484375 C 182.488281 186.777344 182.488281 186.09375 182.546875 185.382812 L 182.546875 185.144531 C 181.503906 165.445312 167.921875 148.648438 148.882812 143.5 C 136.894531 167.726562 135.308594 195.789062 144.492188 221.210938 C 145.757812 224.710938 147.214844 228.136719 148.851562 231.476562 C 157.449219 248.777344 170.871094 263.222656 187.5 273.058594 C 190.792969 275.011719 194.203125 276.765625 197.707031 278.308594 C 198.949219 278.875 200.226562 279.410156 201.503906 279.910156 L 201.53125 279.910156 C 201.554688 279.933594 201.589844 279.945312 201.621094 279.941406 L 201.621094 279.972656 C 201.667969 279.984375 201.71875 279.996094 201.769531 280 C 201.839844 280.007812 201.910156 280.03125 201.976562 280.0625 C 213.433594 284.574219 225.640625 286.875 237.953125 286.851562 C 283.863281 286.808594 323.773438 255.359375 334.5625 210.742188 C 334.585938 210.675781 334.59375 210.605469 334.589844 210.53125 C 334.609375 210.519531 334.617188 210.5 334.621094 210.476562 C 336.425781 202.945312 337.332031 195.230469 337.320312 187.484375 C 337.320312 183.613281 337.09375 179.738281 336.636719 175.890625 " fill-opacity="1" fill-rule="nonzero"/></g><g clip-path="url(#e0a793dbed)"><path fill="#409f66" d="M 143.605469 242.539062 C 141.429688 242.8125 139.242188 242.949219 137.046875 242.953125 C 106.414062 242.992188 81.550781 218.1875 81.515625 187.550781 C 81.480469 156.917969 106.285156 132.058594 136.917969 132.019531 C 136.960938 132.019531 137.003906 132.019531 137.046875 132.019531 C 142.753906 132.058594 148.417969 132.9375 153.867188 134.628906 C 168.792969 139.414062 181.003906 150.269531 187.5 164.527344 C 190.476562 171.011719 192.15625 178.015625 192.457031 185.144531 C 192.472656 185.222656 192.472656 185.300781 192.457031 185.382812 C 192.515625 186.09375 192.515625 186.777344 192.515625 187.484375 C 192.515625 188.199219 192.515625 188.878906 192.457031 189.59375 C 192.472656 189.671875 192.472656 189.75 192.457031 189.832031 C 193.5 209.539062 207.097656 226.339844 226.148438 231.476562 C 239.847656 203.753906 239.835938 171.238281 226.121094 143.527344 C 225.378906 142.015625 224.578125 140.503906 223.746094 139.019531 L 222.648438 137.121094 C 222.175781 136.289062 221.644531 135.460938 221.136719 134.628906 C 212.679688 121.210938 201.152344 109.996094 187.5 101.914062 C 186.078125 101.082031 184.65625 100.285156 183.199219 99.511719 C 183.179688 99.511719 183.15625 99.5 183.140625 99.480469 C 183.113281 99.480469 183.082031 99.453125 183.023438 99.425781 C 182.957031 99.394531 182.894531 99.355469 182.84375 99.304688 C 181.003906 98.382812 179.167969 97.496094 177.300781 96.664062 C 164.636719 91.003906 150.917969 88.089844 137.046875 88.121094 C 82.265625 88.121094 37.683594 132.703125 37.683594 187.484375 C 37.664062 199.554688 39.863281 211.515625 44.179688 222.785156 C 44.207031 222.839844 44.226562 222.902344 44.238281 222.960938 L 44.238281 222.992188 C 44.269531 223.050781 44.269531 223.109375 44.296875 223.140625 C 51.34375 241.316406 63.5625 257.035156 79.445312 268.34375 C 79.320312 268.289062 79.199219 268.214844 79.089844 268.136719 C 79.890625 268.730469 80.691406 269.324219 81.523438 269.886719 C 109.863281 289.003906 146.050781 292.183594 177.296875 278.308594 C 163.5 269.09375 151.980469 256.863281 143.605469 242.539062 " fill-opacity="1" fill-rule="nonzero"/></g></svg>